<?xml version="1.0" encoding="utf-8"?>
<!-- Generator: Adobe Illustrator 17.0.0, SVG Export Plug-In . SVG Version: 6.00 Build 0)  -->
<!DOCTYPE svg PUBLIC "-//W3C//DTD SVG 1.1 Tiny//EN" "http://www.w3.org/Graphics/SVG/1.1/DTD/svg11-tiny.dtd">
<svg version="1.1" baseProfile="tiny" id="Layer_1" xmlns="http://www.w3.org/2000/svg" xmlns:xlink="http://www.w3.org/1999/xlink"
	 x="0px" y="0px" width="1200px" height="1200px" viewBox="0 0 1200 1200" xml:space="preserve">
<g>
	<g>
		<path fill="black" d="M1201.5,571.5c0,20.333,0,40.667,0,61c-0.932,10.063-1.053,20.164-1.394,30.255
			c-0.834,24.693-5.476,48.835-10.923,72.815c-11.198,49.296-28.289,96.495-51.524,141.411
			c-20.97,40.539-46.105,78.313-75.616,113.172c-14.545,17.18-29.882,33.623-46.254,49.035
			c-35.551,33.468-74.425,62.502-116.947,86.626c-64.919,36.832-134.329,60.579-208.051,71.852
			c-13.779,2.107-27.721,2.155-41.609,2.896c-6.226,0.333-12.492-0.069-18.681,0.937c-20,0-40,0-60,0
			c-8.754-1.244-17.634-1.351-26.394-1.444c-21.893-0.231-43.244-3.917-64.535-8.29c-45.237-9.292-88.783-23.68-130.741-43.05
			c-50.878-23.488-97.511-53.521-139.961-90.007c-48.648-41.812-89.714-90.172-122.987-145.016
			C44.033,844.716,17.4,770.17,5.241,690.434c-2.108-13.82-2.774-27.746-3.335-41.699c-0.867-21.554-0.748-43.113-0.942-64.674
			c-0.613-68.125,13.19-133.48,37.18-196.964c15.622-41.339,35.767-80.357,60.056-117.203
			c17.718-26.879,37.608-52.081,59.421-75.844c32.052-34.918,67.609-65.696,106.812-92.204
			c26.388-17.843,54.059-33.509,83.012-46.951c37.789-17.544,76.921-31.044,117.461-40.478
			c23.857-5.552,47.909-10.267,72.394-11.796c10.305-0.644,20.681-0.831,31.027-1.114c16.565-0.453,33.126-0.343,49.688-0.527
			c68.505-0.759,134.238,13.06,198.066,37.237c42.745,16.191,82.994,37.179,120.936,62.568
			c25.512,17.072,49.431,36.187,72.082,56.959c40.419,37.065,75.071,78.86,104.115,125.32
			c34.839,55.731,59.775,115.629,74.818,179.607c5.044,21.455,9.606,43.024,11.208,65.078c0.929,12.781,1.368,25.59,1.786,38.398
			C1201.082,567.931,1200.477,569.796,1201.5,571.5z"/>
		<path fill="#F7F7F7" d="M1201.5,571.5c-2.037-9.138-1.862-18.502-2.761-27.753c-8.532-87.765-34.194-170.203-79.788-245.648
			C1024.522,141.843,887.757,43.384,707.808,11.634c-193.38-34.119-365.4,16.43-511.512,147.97
			C96.29,249.637,33.842,362.508,11.308,495.238c-31.806,187.353,13.896,355.183,137.711,499.626
			c91.157,106.344,207.489,171.145,345.274,197.038c23.603,4.436,47.441,7.089,71.409,8.575c1.649,0.102,3.358-0.067,4.797,1.023
			c-188.474,0-376.947-0.011-565.42,0.084c-3.6,0.002-4.686-0.573-4.684-4.504C0.507,799.803,0.508,402.526,0.39,5.248
			C0.388,1.192,1.198,0.389,5.25,0.39c397.111,0.118,794.222,0.12,1191.332-0.018c4.452-0.002,5.014,1.197,5.012,5.209
			C1201.486,194.221,1201.5,382.86,1201.5,571.5z"/>
		<path fill="#F7F7F7" d="M630.5,1201.5c9.648-1.949,19.498-1.851,29.244-2.801c67.607-6.586,132.459-23.593,193.813-52.723
			c143.223-68.001,245.129-175.547,305.307-322.234c24.48-59.67,37.687-122.063,41.602-186.425c0.101-1.666,0.078-3.342,1.034-4.817
			c0,188.167-0.013,376.333,0.094,564.5c0.002,3.749-0.844,4.596-4.594,4.594C1008.167,1201.487,819.333,1201.5,630.5,1201.5z"/>
		<path fill="#F7F7F7" d="M1097.524,601.704c-0.047,238.791-170.333,445.065-405.45,487.145
			c-159.521,28.55-301.918-11.832-423.022-119.794c-91.505-81.574-145.594-184.781-159.393-306.727
			c-18.841-166.506,33.863-308.307,154.734-424.459c29.469-28.318,62.816-51.532,98.507-71.424c4.034-2.248,6.284-1.982,8.919,1.913
			c3.727,5.508,7.818,10.83,12.241,15.797c18.108,20.338,21.728,43.87,15.924,69.63c-3.431,15.225-10.115,28.804-19.85,41.024
			c-15.402,19.335-26.536,40.895-30.785,65.373c-9.327,53.734,5.868,98.466,50.09,131.954c3.181,2.409,3.133,4.235,1.513,7.42
			c-17.106,33.637-25.002,69.378-24.434,107.09c1.613,107.051,82.939,200.552,188.776,216.913
			c122.566,18.947,235.254-60.805,257.7-182.38c23.226-125.801-66.158-247.453-193.171-262.824
			c-44.989-5.445-88.032,1.401-128.797,21.327c-7.906,3.864-15.219,8.94-22.807,13.453c-12.483,7.424-22.845,5.711-32.462-5.263
			c-10.303-11.758-12.235-24.716-5.875-38.985c3.484-7.818,8.421-14.748,13.129-21.817c15.177-22.787,27.215-47.003,33.371-73.844
			c10.855-47.331-0.255-89.766-28.875-128.226c-2.287-3.074-4.665-6.084-7.085-9.055c-4.501-5.525-4.538-5.541,2.51-7.776
			c20.679-6.558,41.713-11.7,63.098-15.315c90.997-15.381,179.677-6.903,265.782,26.479
			c165.354,64.105,284.863,214.227,310.43,389.646C1095.757,553.092,1097.505,577.337,1097.524,601.704z"/>
		<path fill="#F7F7F7" d="M460.85,603.982c-0.367-77.791,63.096-141.306,141.523-141.64
			c77.895-0.332,141.649,62.762,142.051,140.581c0.404,78.302-62.728,142.419-140.493,142.683
			C524.63,745.874,461.223,683.113,460.85,603.982z"/>
	</g>
</g>
<path fill="none" d="z"/>
</svg>
